<svg version="1.1" class="clearos-svg clearfoundation app-vendor-clearfoundation app-free app-category-gateway app-sub-category-content-filter-and-proxy" viewBox="0 0 400 400" preserveAspectRatio="xMinYMin" xmlns="http://www.w3.org/2000/svg" xmlns:xlink= "http://www.w3.org/1999/xlink">
<path fill="#AA0707" d="M91.666,184.647"/>
<path fill="#AA0707" d="M123.245,247.805"/>
<path fill="#AA0707" d="M91.666,184.647"/>
<path fill="#AA0707" d="M123.245,247.805"/>
<g>
	<g>
		<path fill="#686868" d="M204.895,41.749c-87.423,0-158.272,70.856-158.272,158.255c0,87.381,70.864,158.248,158.272,158.248
			c87.363,0,158.266-70.867,158.266-158.248C363.156,112.605,292.258,41.749,204.895,41.749z M204.895,342.238
			c-78.557,0-142.236-63.693-142.236-142.234c0-78.548,63.679-142.236,142.236-142.236c78.559,0,142.232,63.688,142.232,142.236
			C347.127,278.545,283.414,342.238,204.895,342.238z"/>
		<g>
			<path fill="#686868" d="M195.546,71.94v-0.372c-44.54,4.279-81.586,38.777-95.81,85.809h28.893
				C138.706,111.604,164.418,77.678,195.546,71.94z"/>
			<path fill="#686868" d="M124.018,200.004c0-8.8,0.563-17.361,1.607-25.672H95.546c-1.457,8.311-2.235,16.889-2.235,25.672
				c0,8.469,0.746,16.748,2.119,24.762h30.094C124.557,216.752,124.018,208.473,124.018,200.004z"/>
			<path fill="#686868" d="M128.438,241.754H99.432c14.073,47.469,51.295,82.354,96.115,86.695v-0.432
				C164.204,322.287,138.381,287.963,128.438,241.754z"/>
			<path fill="#686868" d="M195.546,174.332h-54.831c-1.281,8.212-2.068,16.807-2.068,25.654c0,8.553,0.711,16.832,1.92,24.779
				h54.979V174.332L195.546,174.332z"/>
			<path fill="#686868" d="M195.546,95.543c-22.974,5.175-42.13,29.083-51.221,61.816h51.221V95.543L195.546,95.543z"/>
			<path fill="#686868" d="M212.533,224.766h56.674c1.229-7.947,1.893-16.227,1.893-24.777c0-8.85-0.729-17.426-2.021-25.655
				h-56.545V224.766z"/>
			<path fill="#686868" d="M265.449,157.359c-9.32-33.536-29.172-57.867-52.916-62.238v62.238H265.449z"/>
			<path fill="#686868" d="M212.533,304.852c23.926-4.385,43.959-29.156,53.168-63.131h-53.168V304.852L212.533,304.852z"/>
			<path fill="#686868" d="M144.093,241.754c8.95,33.18,28.298,57.502,51.47,62.719v-62.719H144.093L144.093,241.754z"/>
			<path fill="#686868" d="M281.133,157.359h28.941c-14.424-47.585-52.189-82.297-97.516-85.875v0.174
				C244.475,76.42,270.898,110.768,281.133,157.359z"/>
			<path fill="#686868" d="M285.783,200.004c0,8.469-0.58,16.748-1.572,24.762h30.137c1.322-8.014,2.084-16.326,2.084-24.762
				c0-8.8-0.777-17.361-2.219-25.672h-30.104C285.203,182.643,285.783,191.221,285.783,200.004z"/>
			<path fill="#686868" d="M212.533,328.35v0.197c45.582-3.576,83.564-38.744,97.805-86.793H281.33
				C271.264,288.775,244.641,323.547,212.533,328.35z"/>
		</g>
	</g>
	<path fill="#686868" d="M61.391,2.342c-21.772,0-39.406,17.634-39.406,39.407c0,21.772,17.634,39.423,39.406,39.423
		c21.781,0,39.414-17.65,39.414-39.423S83.155,2.342,61.391,2.342z M61.391,69.489c-15.348,0-27.759-12.417-27.759-27.758
		c0-15.307,12.394-27.725,27.759-27.725c15.323,0,27.734,12.401,27.734,27.725C89.106,57.057,76.713,69.489,61.391,69.489z"/>
	<path fill="#686868" d="M339.693,2.342c-21.771,0-39.422,17.634-39.422,39.407c0,21.772,17.65,39.423,39.422,39.423
		c21.773,0,39.391-17.65,39.391-39.423S361.467,2.342,339.693,2.342z M339.693,69.489c-15.35,0-27.766-12.417-27.766-27.758
		c0-15.307,12.416-27.725,27.766-27.725c15.316,0,27.734,12.401,27.734,27.725C367.43,57.057,355.043,69.489,339.693,69.489z"/>
	<path fill="#686868" d="M339.693,318.861c-21.771,0-39.422,17.633-39.422,39.391c0,21.789,17.65,39.406,39.422,39.406
		c21.773,0,39.391-17.617,39.391-39.406C379.084,336.494,361.467,318.861,339.693,318.861z M339.693,386.016
		c-15.35,0-27.766-12.416-27.766-27.764c0-15.283,12.416-27.75,27.766-27.75c15.316,0,27.734,12.449,27.734,27.75
		C367.43,373.584,355.043,386.016,339.693,386.016z"/>
	<path fill="#686868" d="M60.321,318.861c-21.772,0-39.405,17.633-39.405,39.391c0,21.789,17.633,39.406,39.405,39.406
		c21.766,0,39.4-17.617,39.4-39.406C99.721,336.494,82.069,318.861,60.321,318.861z M60.321,386.016
		c-15.332,0-27.758-12.416-27.758-27.764c0-15.283,12.41-27.75,27.758-27.75c15.341,0,27.752,12.449,27.752,27.75
		C88.057,373.584,75.663,386.016,60.321,386.016z"/>
</g>
</svg>
